# xmcd
#
# Track frame offsets: 
#        150
#        12911
#        26354
#        40193
#        53421
#        67396
#        81110
#        95179
#        108798
#        122535
#        137093
#        151021
#        164988
#        177039
#
# Disc length: 2523 seconds
#
# Revision: 7
# Processed by: cddbd v1.5.2PL0 Copyright (c) Steve Scherf et al.
# Submitted via: ExactAudioCopy v1.0b4
#
DISCID=b009d90e
DTITLE=Various Artist - Blues in History II - Disc 1
DYEAR=1900
DGENRE=Blues
TTITLE0=Skip James - Skip James - 22-20 Blues
TTITLE1=Skip James - Skip James - Devil Got My Woman
TTITLE2=Lonnie Johnson - Lonnie Johnson - Life Saver Blues
TTITLE3=Leroy Carr - Leroy Carr - When the Sun Goes Down
TTITLE4=Henry Thomas - Henry Thomas - Red River Blues
TTITLE5=Son House - Son House - Preachin' The Blues Part 1
TTITLE6=Kokomo Arnold - Kokomo Arnold - Milk Cow Blues
TTITLE7=Willie Newbern - Willie Newbern - Roll and Tumble Blues Hambon
TTITLE7=e
TTITLE8=Scrapper Blackwell - Scrapper Blackwell - Kokomo Blues
TTITLE9=The Mississippi Sheiks - The Mississippi Sheiks - Sitting On T
TTITLE9=op Of The World
TTITLE10=Johnnie Temple - Johnnie Temple - Lead Pencil Blues
TTITLE11=Sun House - Sun House - My Black Mama Part 1
TTITLE12=Charlie Patton - Charlie Patton - Revenue Man Blues
TTITLE13=Casey Bill Weldon - Casey Bill Weldon - Go Ahead, Buddy
EXTD=Nothing But The Blues: 20 double CD's depicting the history of th
EXTD=e blues.  This is CD # 2, id 20.1950-HI.\nCopyright this collecti
EXTD=on: Music Alliance AG, Gerliswilstrasse 44, CH-6021 Emmenbrücke, 
EXTD=Switzerland.\n
EXTT0=
EXTT1=
EXTT2=
EXTT3=
EXTT4=
EXTT5=
EXTT6=
EXTT7=
EXTT8=
EXTT9=
EXTT10=
EXTT11=
EXTT12=
EXTT13=
PLAYORDER=
